<svg width="11" height="11" viewBox="0 0 8 8" fill="none" xmlns="http://www.w3.org/2000/svg">
<g clip-path="url(#clip0_5_399)">
<path d="M3.9753 2.14427C3.04963 2.14427 2.30299 2.88706 2.30299 3.80796C2.30299 4.72885 3.04963 5.47164 3.9753 5.47164C4.90096 5.47164 5.6476 4.72885 5.6476 3.80796C5.6476 2.88706 4.90096 2.14427 3.9753 2.14427ZM3.9753 4.88957C3.37711 4.88957 2.88808 4.40451 2.88808 3.80796C2.88808 3.2114 3.37565 2.72634 3.9753 2.72634C4.57494 2.72634 5.06251 3.2114 5.06251 3.80796C5.06251 4.40451 4.57348 4.88957 3.9753 4.88957ZM6.10606 2.07622C6.10606 2.29196 5.93141 2.46426 5.71601 2.46426C5.49914 2.46426 5.32595 2.29051 5.32595 2.07622C5.32595 1.86192 5.5006 1.68817 5.71601 1.68817C5.93141 1.68817 6.10606 1.86192 6.10606 2.07622ZM7.21366 2.47006C7.18891 1.95024 7.06957 1.4898 6.68679 1.11044C6.30546 0.731076 5.84263 0.612345 5.32013 0.586282C4.78161 0.555875 3.16752 0.555875 2.62901 0.586282C2.10796 0.610897 1.64513 0.729628 1.26235 1.10899C0.879567 1.48835 0.761676 1.9488 0.735478 2.46861C0.704914 3.00435 0.704914 4.61012 0.735478 5.14586C0.760221 5.66567 0.879567 6.12611 1.26235 6.50548C1.64513 6.88484 2.10651 7.00357 2.62901 7.02963C3.16752 7.06004 4.78161 7.06004 5.32013 7.02963C5.84263 7.00502 6.30546 6.88628 6.68679 6.50548C7.06811 6.12611 7.18746 5.66567 7.21366 5.14586C7.24422 4.61012 7.24422 3.0058 7.21366 2.47006ZM6.51795 5.72069C6.40443 6.00449 6.18466 6.22313 5.89794 6.33751C5.46858 6.50692 4.44977 6.46783 3.9753 6.46783C3.50082 6.46783 2.48055 6.50548 2.05265 6.33751C1.76739 6.22457 1.54762 6.00593 1.43264 5.72069C1.26235 5.29355 1.30165 4.27999 1.30165 3.80796C1.30165 3.33593 1.2638 2.32092 1.43264 1.89522C1.54616 1.61143 1.76593 1.39279 2.05265 1.2784C2.48201 1.10899 3.50082 1.14808 3.9753 1.14808C4.44977 1.14808 5.47004 1.11044 5.89794 1.2784C6.1832 1.39134 6.40297 1.60998 6.51795 1.89522C6.68824 2.32237 6.64894 3.33593 6.64894 3.80796C6.64894 4.27999 6.68824 5.29499 6.51795 5.72069Z" fill="white"/>
</g>
<defs>
<clipPath id="clip0_5_399">
<rect width="6.58976" height="7.41348" fill="white" transform="translate(0.731049 0.102539)"/>
</clipPath>
</defs>
</svg>
