<svg width="11" height="11" viewBox="0 0 8 7" fill="none" xmlns="http://www.w3.org/2000/svg">
<g clip-path="url(#clip0_5_394)">
<path d="M2.42487 6.69255V2.52433H1.02694V6.69255H2.42487ZM1.72608 1.95489C2.21357 1.95489 2.517 1.63482 2.517 1.23484C2.50792 0.825835 2.21358 0.514648 1.73533 0.514648C1.25716 0.514648 0.944458 0.825841 0.944458 1.23484C0.944458 1.63484 1.24782 1.95489 1.71696 1.95489H1.72604H1.72608ZM3.19862 6.69255H4.59655V4.36481C4.59655 4.24023 4.60563 4.11579 4.64255 4.02673C4.74361 3.77783 4.97362 3.52004 5.35979 3.52004C5.86564 3.52004 6.06801 3.90228 6.06801 4.46261V6.69252H7.46586V4.3025C7.46586 3.02219 6.77619 2.42647 5.85644 2.42647C5.10231 2.42647 4.7712 2.84423 4.58725 3.12877H4.59658V2.52424H3.19865C3.21699 2.91537 3.19865 6.69246 3.19865 6.69246L3.19862 6.69255Z" fill="white"/>
</g>
<defs>
<clipPath id="clip0_5_394">
<rect width="6.58976" height="6.1779" fill="white" transform="translate(0.961731 0.514648)"/>
</clipPath>
</defs>
</svg>
