<svg width="11" height="11" viewBox="0 0 9 7" fill="none" xmlns="http://www.w3.org/2000/svg">
<g clip-path="url(#clip0_5_389)">
<path d="M8.10314 1.62867C7.82845 1.74584 7.5371 1.82274 7.23876 1.85683C7.54951 1.6775 7.78812 1.39353 7.90047 1.05519C7.60506 1.22397 7.28186 1.34289 6.94483 1.4068C6.67029 1.12521 6.27919 0.949219 5.84632 0.949219C5.01518 0.949219 4.34132 1.59799 4.34132 2.39818C4.34132 2.51176 4.35464 2.62233 4.38029 2.72841C3.12954 2.66797 2.02063 2.09111 1.27834 1.21446C1.14883 1.42846 1.07461 1.67739 1.07461 1.94291C1.07461 2.44563 1.34032 2.88912 1.74412 3.14897C1.50513 3.14177 1.2714 3.07962 1.06244 2.96772C1.06235 2.97379 1.06235 2.97986 1.06235 2.98595C1.06235 3.688 1.5811 4.27365 2.26955 4.40677C2.04793 4.4648 1.81547 4.47329 1.58993 4.4316C1.78142 5.00727 2.33723 5.42617 2.99575 5.4379C2.4807 5.82651 1.83177 6.05817 1.12671 6.05817C1.00521 6.05817 0.88544 6.0513 0.7677 6.03792C1.43371 6.44905 2.22476 6.68893 3.07464 6.68893C5.84282 6.68893 7.35653 4.48098 7.35653 2.56622C7.35653 2.50337 7.3551 2.44088 7.35217 2.37875C7.6468 2.17368 7.9011 1.91968 8.10314 1.62867Z" fill="white"/>
</g>
<defs>
<clipPath id="clip0_5_389">
<rect width="7.41348" height="5.76604" fill="white" transform="translate(0.78067 0.926758)"/>
</clipPath>
</defs>
</svg>
