<svg width="20" height="20" viewBox="0 0 10 9" fill="none" xmlns="http://www.w3.org/2000/svg">
<path d="M4.64411 0.423079C4.70575 0.233354 4.97417 0.233354 5.03581 0.42308L5.90335 3.09307C5.93091 3.17792 6.00998 3.23537 6.0992 3.23537H8.9066C9.10608 3.23537 9.18903 3.49064 9.02764 3.6079L6.7564 5.25805C6.68423 5.31049 6.65403 5.40344 6.6816 5.48828L7.54913 8.15828C7.61078 8.34801 7.39363 8.50577 7.23224 8.38852L4.961 6.73837C4.88883 6.68593 4.79109 6.68593 4.71892 6.73837L2.44768 8.38852C2.28629 8.50577 2.06914 8.348 2.13079 8.15828L2.99832 5.48828C3.02589 5.40344 2.99569 5.31049 2.92352 5.25805L0.652282 3.6079C0.490892 3.49064 0.573836 3.23537 0.773325 3.23537H3.58072C3.66994 3.23537 3.74901 3.17792 3.77658 3.09307L4.64411 0.423079Z" fill="#F1CC4A"/>
</svg>
