<svg width="14" height="14" viewBox="0 0 14 14" fill="none" xmlns="http://www.w3.org/2000/svg">
<path d="M6.59556 4.66661L6.91956 5.42443C6.94152 5.49033 7.00193 5.52877 7.06234 5.53426L7.88606 5.61114C8.06178 5.62762 8.12768 5.84179 8.00138 5.95711L7.38084 6.50076C7.33142 6.54469 7.30945 6.61059 7.32593 6.671L7.50714 7.47824C7.54558 7.64848 7.36437 7.78027 7.2106 7.69241L6.50221 7.26957C6.44729 7.23662 6.3759 7.23662 6.32099 7.26957L5.61259 7.69241C5.46432 7.78027 5.27761 7.64848 5.31605 7.47824L5.49727 6.671C5.51374 6.61059 5.49178 6.54469 5.44235 6.50076L4.82182 5.95711C4.69002 5.84179 4.76141 5.62762 4.93714 5.61114L5.76086 5.53426C5.82676 5.52877 5.88167 5.49033 5.90913 5.42993L6.23312 4.6721C6.29902 4.50736 6.52417 4.50736 6.59556 4.66661Z" stroke="#F0C932" stroke-width="0.549146" stroke-miterlimit="10" stroke-linecap="round" stroke-linejoin="round"/>
<path d="M10.1471 6.27326C10.1613 4.21092 8.5009 2.52755 6.43856 2.51336C4.37622 2.49917 2.69286 4.15952 2.67867 6.22186C2.66448 8.2842 4.32483 9.96756 6.38717 9.98175C8.4495 9.99595 10.1329 8.3356 10.1471 6.27326Z" stroke="#F0C932" stroke-width="0.549146" stroke-miterlimit="10" stroke-linecap="round" stroke-linejoin="round"/>
<path d="M5.90361 9.94451L4.97556 12.2784L3.80038 10.933L2.02664 11.0977L3.20181 8.1543" stroke="#F0C932" stroke-width="0.549146" stroke-miterlimit="10" stroke-linecap="round" stroke-linejoin="round"/>
<path d="M6.91407 9.94451L7.84762 12.2784L9.0173 10.933L10.7965 11.0977L9.61587 8.1543" stroke="#F0C932" stroke-width="0.549146" stroke-miterlimit="10" stroke-linecap="round" stroke-linejoin="round"/>
</svg>
