<svg width="15" height="14" viewBox="0 0 15 14" fill="none" xmlns="http://www.w3.org/2000/svg">
<rect width="15" height="14" fill="#1E1E1E"/>
<g clip-path="url(#clip0_0_1)" filter="url(#filter0_d_0_1)">
<rect width="593.078" height="1516.47" transform="translate(-62 -9)" fill="white"/>
<g filter="url(#filter1_d_0_1)">
<g filter="url(#filter2_d_0_1)">
<rect x="-62" y="-9" width="593.078" height="32.9488" fill="white"/>
</g>
</g>
<g filter="url(#filter3_d_0_1)">
<g filter="url(#filter4_d_0_1)">
<rect width="593.078" height="32.9488" transform="matrix(1 0 0 -1 -62 23.9492)" fill="white"/>
</g>
</g>
<path d="M14.4342 0H0.088266C0.0395529 0 0 0.0397265 0 0.0887345V13.8876C0 13.9366 0.0395529 13.9764 0.088266 13.9764H14.4342C14.4829 13.9764 14.5222 13.9366 14.5222 13.8876V0.0887345C14.5222 0.0397265 14.4829 0 14.4342 0Z" fill="#545BE8"/>
<path d="M3.83813 3.07617V10.9009" stroke="white" stroke-width="1.26926"/>
<path d="M6.18283 3.07617V6.97375" stroke="white" stroke-width="1.26685"/>
<path d="M7.96899 3.07617V4.40004H10.2064L11.8294 7.75377H13.2908L10.9698 3.07617H7.96899Z" fill="white"/>
<path d="M8.63382 5.83496V11.0562" stroke="white" stroke-width="1.46628"/>
<path d="M14.4342 0H0.088266C0.0395529 0 0 0.0397265 0 0.0887345V13.8876C0 13.9366 0.0395529 13.9764 0.088266 13.9764H14.4342C14.4829 13.9764 14.5222 13.9366 14.5222 13.8876V0.0887345C14.5222 0.0397265 14.4829 0 14.4342 0Z" fill="#545BE8"/>
<path d="M3.83813 3.07617V10.9009" stroke="white" stroke-width="1.26926"/>
<path d="M6.18283 3.07617V6.97375" stroke="white" stroke-width="1.26685"/>
<path d="M7.96899 3.07617V4.40004H10.2064L11.8294 7.75377H13.2908L10.9698 3.07617H7.96899Z" fill="white"/>
<path d="M8.63382 5.83496V11.0562" stroke="white" stroke-width="1.46628"/>
<path d="M14.4342 0H0.088266C0.0395529 0 0 0.0397265 0 0.0887345V13.8876C0 13.9366 0.0395529 13.9764 0.088266 13.9764H14.4342C14.4829 13.9764 14.5222 13.9366 14.5222 13.8876V0.0887345C14.5222 0.0397265 14.4829 0 14.4342 0Z" fill="#545BE8"/>
<path d="M3.83813 3.07617V10.9009" stroke="white" stroke-width="1.26926"/>
<path d="M6.18283 3.07617V6.97375" stroke="white" stroke-width="1.26685"/>
<path d="M7.96899 3.07617V4.40004H10.2064L11.8294 7.75377H13.2908L10.9698 3.07617H7.96899Z" fill="white"/>
<path d="M8.63382 5.83496V11.0562" stroke="white" stroke-width="1.46628"/>
<path d="M14.4342 0H0.088266C0.0395529 0 0 0.0397265 0 0.0887345V13.8876C0 13.9366 0.0395529 13.9764 0.088266 13.9764H14.4342C14.4829 13.9764 14.5222 13.9366 14.5222 13.8876V0.0887345C14.5222 0.0397265 14.4829 0 14.4342 0Z" fill="#545BE8"/>
<path d="M3.83813 3.07617V10.9009" stroke="white" stroke-width="1.26926"/>
<path d="M6.18283 3.07617V6.97375" stroke="white" stroke-width="1.26685"/>
<path d="M7.96899 3.07617V4.40004H10.2064L11.8294 7.75377H13.2908L10.9698 3.07617H7.96899Z" fill="white"/>
<path d="M8.63382 5.83496V11.0562" stroke="white" stroke-width="1.46628"/>
<path d="M14.4342 0H0.088266C0.0395529 0 0 0.0397265 0 0.0887345V13.8876C0 13.9366 0.0395529 13.9764 0.088266 13.9764H14.4342C14.4829 13.9764 14.5222 13.9366 14.5222 13.8876V0.0887345C14.5222 0.0397265 14.4829 0 14.4342 0Z" fill="#545BE8"/>
<path d="M3.83813 3.07617V10.9009" stroke="white" stroke-width="1.26926"/>
<path d="M6.18283 3.07617V6.97375" stroke="white" stroke-width="1.26685"/>
<path d="M7.96899 3.07617V4.40004H10.2064L11.8294 7.75377H13.2908L10.9698 3.07617H7.96899Z" fill="white"/>
<path d="M8.63382 5.83496V11.0562" stroke="white" stroke-width="1.46628"/>
<path d="M14.4342 0H0.088266C0.0395529 0 0 0.0397265 0 0.0887345V13.8876C0 13.9366 0.0395529 13.9764 0.088266 13.9764H14.4342C14.4829 13.9764 14.5222 13.9366 14.5222 13.8876V0.0887345C14.5222 0.0397265 14.4829 0 14.4342 0Z" fill="#545BE8"/>
<path d="M3.83813 3.07617V10.9009" stroke="white" stroke-width="1.26926"/>
<path d="M6.18283 3.07617V6.97375" stroke="white" stroke-width="1.26685"/>
<path d="M7.96899 3.07617V4.40004H10.2064L11.8294 7.75377H13.2908L10.9698 3.07617H7.96899Z" fill="white"/>
<path d="M8.63382 5.83496V11.0562" stroke="white" stroke-width="1.46628"/>
<path d="M14.4342 0H0.088266C0.0395529 0 0 0.0397265 0 0.0887345V13.8876C0 13.9366 0.0395529 13.9764 0.088266 13.9764H14.4342C14.4829 13.9764 14.5222 13.9366 14.5222 13.8876V0.0887345C14.5222 0.0397265 14.4829 0 14.4342 0Z" fill="#545BE8"/>
<path d="M3.83813 3.07617V10.9009" stroke="white" stroke-width="1.26926"/>
<path d="M6.18283 3.07617V6.97375" stroke="white" stroke-width="1.26685"/>
<path d="M7.96899 3.07617V4.40004H10.2064L11.8294 7.75377H13.2908L10.9698 3.07617H7.96899Z" fill="white"/>
<path d="M8.63382 5.83496V11.0562" stroke="white" stroke-width="1.46628"/>
<path d="M14.4342 0H0.088266C0.0395529 0 0 0.0397265 0 0.0887345V13.8876C0 13.9366 0.0395529 13.9764 0.088266 13.9764H14.4342C14.4829 13.9764 14.5222 13.9366 14.5222 13.8876V0.0887345C14.5222 0.0397265 14.4829 0 14.4342 0Z" fill="#545BE8"/>
<path d="M3.83813 3.07617V10.9009" stroke="white" stroke-width="1.26926"/>
<path d="M6.18283 3.07617V6.97375" stroke="white" stroke-width="1.26685"/>
<path d="M7.96899 3.07617V4.40004H10.2064L11.8294 7.75377H13.2908L10.9698 3.07617H7.96899Z" fill="white"/>
<path d="M8.63382 5.83496V11.0562" stroke="white" stroke-width="1.46628"/>
<path d="M14.4342 0H0.088266C0.0395529 0 0 0.0397265 0 0.0887345V13.8876C0 13.9366 0.0395529 13.9764 0.088266 13.9764H14.4342C14.4829 13.9764 14.5222 13.9366 14.5222 13.8876V0.0887345C14.5222 0.0397265 14.4829 0 14.4342 0Z" fill="#545BE8"/>
<path d="M3.83813 3.07617V10.9009" stroke="white" stroke-width="1.26926"/>
<path d="M6.18283 3.07617V6.97375" stroke="white" stroke-width="1.26685"/>
<path d="M7.96899 3.07617V4.40004H10.2064L11.8294 7.75377H13.2908L10.9698 3.07617H7.96899Z" fill="white"/>
<path d="M8.63382 5.83496V11.0562" stroke="white" stroke-width="1.46628"/>
<path d="M14.4342 0H0.088266C0.0395529 0 0 0.0397265 0 0.0887345V13.8876C0 13.9366 0.0395529 13.9764 0.088266 13.9764H14.4342C14.4829 13.9764 14.5222 13.9366 14.5222 13.8876V0.0887345C14.5222 0.0397265 14.4829 0 14.4342 0Z" fill="#545BE8"/>
<path d="M3.83813 3.07617V10.9009" stroke="white" stroke-width="1.26926"/>
<path d="M6.18283 3.07617V6.97375" stroke="white" stroke-width="1.26685"/>
<path d="M7.96899 3.07617V4.40004H10.2064L11.8294 7.75377H13.2908L10.9698 3.07617H7.96899Z" fill="white"/>
<path d="M8.63382 5.83496V11.0562" stroke="white" stroke-width="1.46628"/>
<path d="M14.4342 0H0.088266C0.0395529 0 0 0.0397265 0 0.0887345V13.8876C0 13.9366 0.0395529 13.9764 0.088266 13.9764H14.4342C14.4829 13.9764 14.5222 13.9366 14.5222 13.8876V0.0887345C14.5222 0.0397265 14.4829 0 14.4342 0Z" fill="#545BE8"/>
<path d="M3.83813 3.07617V10.9009" stroke="white" stroke-width="1.26926"/>
<path d="M6.18283 3.07617V6.97375" stroke="white" stroke-width="1.26685"/>
<path d="M7.96899 3.07617V4.40004H10.2064L11.8294 7.75377H13.2908L10.9698 3.07617H7.96899Z" fill="white"/>
<path d="M8.63382 5.83496V11.0562" stroke="white" stroke-width="1.46628"/>
<path d="M14.4342 0H0.088266C0.0395529 0 0 0.0397265 0 0.0887345V13.8876C0 13.9366 0.0395529 13.9764 0.088266 13.9764H14.4342C14.4829 13.9764 14.5222 13.9366 14.5222 13.8876V0.0887345C14.5222 0.0397265 14.4829 0 14.4342 0Z" fill="#545BE8"/>
<path d="M3.83813 3.07617V10.9009" stroke="white" stroke-width="1.26926"/>
<path d="M6.18283 3.07617V6.97375" stroke="white" stroke-width="1.26685"/>
<path d="M7.96899 3.07617V4.40004H10.2064L11.8294 7.75377H13.2908L10.9698 3.07617H7.96899Z" fill="white"/>
<path d="M8.63382 5.83496V11.0562" stroke="white" stroke-width="1.46628"/>
<path d="M14.4342 0H0.088266C0.0395529 0 0 0.0397265 0 0.0887345V13.8876C0 13.9366 0.0395529 13.9764 0.088266 13.9764H14.4342C14.4829 13.9764 14.5222 13.9366 14.5222 13.8876V0.0887345C14.5222 0.0397265 14.4829 0 14.4342 0Z" fill="#545BE8"/>
<path d="M3.83813 3.07617V10.9009" stroke="white" stroke-width="1.26926"/>
<path d="M6.18283 3.07617V6.97375" stroke="white" stroke-width="1.26685"/>
<path d="M7.96899 3.07617V4.40004H10.2064L11.8294 7.75377H13.2908L10.9698 3.07617H7.96899Z" fill="white"/>
<path d="M8.63382 5.83496V11.0562" stroke="white" stroke-width="1.46628"/>
<path d="M14.4342 0H0.088266C0.0395529 0 0 0.0397265 0 0.0887345V13.8876C0 13.9366 0.0395529 13.9764 0.088266 13.9764H14.4342C14.4829 13.9764 14.5222 13.9366 14.5222 13.8876V0.0887345C14.5222 0.0397265 14.4829 0 14.4342 0Z" fill="#545BE8"/>
<path d="M3.83813 3.07617V10.9009" stroke="white" stroke-width="1.26926"/>
<path d="M6.18283 3.07617V6.97375" stroke="white" stroke-width="1.26685"/>
<path d="M7.96899 3.07617V4.40004H10.2064L11.8294 7.75377H13.2908L10.9698 3.07617H7.96899Z" fill="white"/>
<path d="M8.63382 5.83496V11.0562" stroke="white" stroke-width="1.46628"/>
<path d="M14.4342 0H0.088266C0.0395529 0 0 0.0397265 0 0.0887345V13.8876C0 13.9366 0.0395529 13.9764 0.088266 13.9764H14.4342C14.4829 13.9764 14.5222 13.9366 14.5222 13.8876V0.0887345C14.5222 0.0397265 14.4829 0 14.4342 0Z" fill="#545BE8"/>
<path d="M3.83813 3.07617V10.9009" stroke="white" stroke-width="1.26926"/>
<path d="M6.18283 3.07617V6.97375" stroke="white" stroke-width="1.26685"/>
<path d="M7.96899 3.07617V4.40004H10.2064L11.8294 7.75377H13.2908L10.9698 3.07617H7.96899Z" fill="white"/>
<path d="M8.63382 5.83496V11.0562" stroke="white" stroke-width="1.46628"/>
<path d="M14.4342 0H0.088266C0.0395529 0 0 0.0397265 0 0.0887345V13.8876C0 13.9366 0.0395529 13.9764 0.088266 13.9764H14.4342C14.4829 13.9764 14.5222 13.9366 14.5222 13.8876V0.0887345C14.5222 0.0397265 14.4829 0 14.4342 0Z" fill="#545BE8"/>
<path d="M3.83813 3.07617V10.9009" stroke="white" stroke-width="1.26926"/>
<path d="M6.18283 3.07617V6.97375" stroke="white" stroke-width="1.26685"/>
<path d="M7.96899 3.07617V4.40004H10.2064L11.8294 7.75377H13.2908L10.9698 3.07617H7.96899Z" fill="white"/>
<path d="M8.63382 5.83496V11.0562" stroke="white" stroke-width="1.46628"/>
<path d="M14.4342 0H0.088266C0.0395529 0 0 0.0397265 0 0.0887345V13.8876C0 13.9366 0.0395529 13.9764 0.088266 13.9764H14.4342C14.4829 13.9764 14.5222 13.9366 14.5222 13.8876V0.0887345C14.5222 0.0397265 14.4829 0 14.4342 0Z" fill="#545BE8"/>
<path d="M3.83813 3.07617V10.9009" stroke="white" stroke-width="1.26926"/>
<path d="M6.18283 3.07617V6.97375" stroke="white" stroke-width="1.26685"/>
<path d="M7.96899 3.07617V4.40004H10.2064L11.8294 7.75377H13.2908L10.9698 3.07617H7.96899Z" fill="white"/>
<path d="M8.63382 5.83496V11.0562" stroke="white" stroke-width="1.46628"/>
<path d="M14.4342 0H0.088266C0.0395529 0 0 0.0397265 0 0.0887345V13.8876C0 13.9366 0.0395529 13.9764 0.088266 13.9764H14.4342C14.4829 13.9764 14.5222 13.9366 14.5222 13.8876V0.0887345C14.5222 0.0397265 14.4829 0 14.4342 0Z" fill="#545BE8"/>
<path d="M3.83813 3.0752V10.9" stroke="white" stroke-width="1.26926"/>
<path d="M6.18283 3.0752V6.97278" stroke="white" stroke-width="1.26685"/>
<path d="M7.96899 3.07617V4.40004H10.2064L11.8294 7.75377H13.2908L10.9698 3.07617H7.96899Z" fill="white"/>
<path d="M8.63382 5.83496V11.0562" stroke="white" stroke-width="1.46628"/>
</g>
<defs>
<filter id="filter0_d_0_1" x="-66" y="-9" width="601.078" height="1524.47" filterUnits="userSpaceOnUse" color-interpolation-filters="sRGB">
<feFlood flood-opacity="0" result="BackgroundImageFix"/>
<feColorMatrix in="SourceAlpha" type="matrix" values="0 0 0 0 0 0 0 0 0 0 0 0 0 0 0 0 0 0 127 0" result="hardAlpha"/>
<feOffset dy="4"/>
<feGaussianBlur stdDeviation="2"/>
<feComposite in2="hardAlpha" operator="out"/>
<feColorMatrix type="matrix" values="0 0 0 0 0 0 0 0 0 0 0 0 0 0 0 0 0 0 0.25 0"/>
<feBlend mode="normal" in2="BackgroundImageFix" result="effect1_dropShadow_0_1"/>
<feBlend mode="normal" in="SourceGraphic" in2="effect1_dropShadow_0_1" result="shape"/>
</filter>
<filter id="filter1_d_0_1" x="-66" y="-9" width="601.078" height="40.9492" filterUnits="userSpaceOnUse" color-interpolation-filters="sRGB">
<feFlood flood-opacity="0" result="BackgroundImageFix"/>
<feColorMatrix in="SourceAlpha" type="matrix" values="0 0 0 0 0 0 0 0 0 0 0 0 0 0 0 0 0 0 127 0" result="hardAlpha"/>
<feOffset dy="4"/>
<feGaussianBlur stdDeviation="2"/>
<feComposite in2="hardAlpha" operator="out"/>
<feColorMatrix type="matrix" values="0 0 0 0 0 0 0 0 0 0 0 0 0 0 0 0 0 0 0.25 0"/>
<feBlend mode="normal" in2="BackgroundImageFix" result="effect1_dropShadow_0_1"/>
<feBlend mode="normal" in="SourceGraphic" in2="effect1_dropShadow_0_1" result="shape"/>
</filter>
<filter id="filter2_d_0_1" x="-70.2372" y="-15.5898" width="609.552" height="49.4236" filterUnits="userSpaceOnUse" color-interpolation-filters="sRGB">
<feFlood flood-opacity="0" result="BackgroundImageFix"/>
<feColorMatrix in="SourceAlpha" type="matrix" values="0 0 0 0 0 0 0 0 0 0 0 0 0 0 0 0 0 0 127 0" result="hardAlpha"/>
<feOffset dy="1.64744"/>
<feGaussianBlur stdDeviation="4.1186"/>
<feComposite in2="hardAlpha" operator="out"/>
<feColorMatrix type="matrix" values="0 0 0 0 0 0 0 0 0 0 0 0 0 0 0 0 0 0 0.1 0"/>
<feBlend mode="normal" in2="BackgroundImageFix" result="effect1_dropShadow_0_1"/>
<feBlend mode="normal" in="SourceGraphic" in2="effect1_dropShadow_0_1" result="shape"/>
</filter>
<filter id="filter3_d_0_1" x="-66" y="-9" width="601.078" height="40.9492" filterUnits="userSpaceOnUse" color-interpolation-filters="sRGB">
<feFlood flood-opacity="0" result="BackgroundImageFix"/>
<feColorMatrix in="SourceAlpha" type="matrix" values="0 0 0 0 0 0 0 0 0 0 0 0 0 0 0 0 0 0 127 0" result="hardAlpha"/>
<feOffset dy="4"/>
<feGaussianBlur stdDeviation="2"/>
<feComposite in2="hardAlpha" operator="out"/>
<feColorMatrix type="matrix" values="0 0 0 0 0 0 0 0 0 0 0 0 0 0 0 0 0 0 0.25 0"/>
<feBlend mode="normal" in2="BackgroundImageFix" result="effect1_dropShadow_0_1"/>
<feBlend mode="normal" in="SourceGraphic" in2="effect1_dropShadow_0_1" result="shape"/>
</filter>
<filter id="filter4_d_0_1" x="-70.2372" y="-15.5898" width="609.552" height="49.4236" filterUnits="userSpaceOnUse" color-interpolation-filters="sRGB">
<feFlood flood-opacity="0" result="BackgroundImageFix"/>
<feColorMatrix in="SourceAlpha" type="matrix" values="0 0 0 0 0 0 0 0 0 0 0 0 0 0 0 0 0 0 127 0" result="hardAlpha"/>
<feOffset dy="1.64744"/>
<feGaussianBlur stdDeviation="4.1186"/>
<feComposite in2="hardAlpha" operator="out"/>
<feColorMatrix type="matrix" values="0 0 0 0 0 0 0 0 0 0 0 0 0 0 0 0 0 0 0.1 0"/>
<feBlend mode="normal" in2="BackgroundImageFix" result="effect1_dropShadow_0_1"/>
<feBlend mode="normal" in="SourceGraphic" in2="effect1_dropShadow_0_1" result="shape"/>
</filter>
<clipPath id="clip0_0_1">
<rect width="593.078" height="1516.47" fill="white" transform="translate(-62 -9)"/>
</clipPath>
</defs>
</svg>
